<svg fill="none" stroke-linecap="square" stroke-miterlimit="10" xmlns="http://www.w3.org/2000/svg" viewBox="0 0 379 302"><path fill="#fff" d="M0 0h379v302H0V0z"/><path stroke="#333" stroke-linecap="butt" d="M46.5 257.5h240"/><path fill="#eee" d="M38.5 265.5l8-7h240l-8 7z"/><path stroke="#ccc" stroke-linecap="butt" d="M46.5 206.5h240M46.5 155.5h240M46.5 104.5h240M46.5 53.5h240"/><clipPath id="a"><path d="M38.1 53.66667h248.8178V265.9H38.1V53.66667z"/></clipPath><path fill="#a07446" clip-path="url(#a)" d="M78 209v49l-5 5v-49z"/><path fill="#f8c189" clip-path="url(#a)" d="M73 214H55l5-5h18z"/><path clip-path="url(#a)" d="M73 263H55v-49h18z"/><path fill="#f6b26b" clip-path="url(#a)" d="M73 263H55v-49h18z"/><path fill="#a07446" clip-path="url(#a)" d="M135 184v74l-5 5v-74z"/><path fill="#f8c189" clip-path="url(#a)" d="M130 189h-18l5-5h18z"/><path clip-path="url(#a)" d="M130 263h-18v-74h18z"/><path fill="#f6b26b" clip-path="url(#a)" d="M130 263h-18v-74h18z"/><path fill="#a07446" clip-path="url(#a)" d="M193 233v25l-5 5v-25z"/><path fill="#f8c189" clip-path="url(#a)" d="M188 238h-18l5-5h18z"/><path clip-path="url(#a)" d="M188 263h-18v-25h18z"/><path fill="#f6b26b" clip-path="url(#a)" d="M188 263h-18v-25h18z"/><path fill="#a07446" clip-path="url(#a)" d="M250 180v78l-5 5v-78z"/><path fill="#f8c189" clip-path="url(#a)" d="M245 185h-18l5-5h18z"/><path clip-path="url(#a)" d="M245 263h-18v-78h18z"/><path fill="#f6b26b" clip-path="url(#a)" d="M245 263h-18v-78h18z"/><path fill="#550c3b" clip-path="url(#a)" d="M97 76v182l-5 5V81z"/><path fill="#9c417b" clip-path="url(#a)" d="M92 81H74l5-5h18z"/><path clip-path="url(#a)" d="M92 263H74V81h18z"/><path fill="#83125a" clip-path="url(#a)" d="M92 263H74V81h18z"/><path fill="#550c3b" clip-path="url(#a)" d="M154 209v49l-5 5v-49z"/><path fill="#9c417b" clip-path="url(#a)" d="M149 214h-18l5-5h18z"/><path clip-path="url(#a)" d="M149 263h-18v-49h18z"/><path fill="#83125a" clip-path="url(#a)" d="M149 263h-18v-49h18z"/><path fill="#550c3b" clip-path="url(#a)" d="M212 182v76l-5 5v-76z"/><path fill="#9c417b" clip-path="url(#a)" d="M207 187h-18l5-5h18z"/><path clip-path="url(#a)" d="M207 263h-18v-76h18z"/><path fill="#83125a" clip-path="url(#a)" d="M207 263h-18v-76h18z"/><path fill="#550c3b" clip-path="url(#a)" d="M269 129v129l-5 5V134z"/><path fill="#9c417b" clip-path="url(#a)" d="M264 134h-18l5-5h18z"/><path clip-path="url(#a)" d="M264 263h-18V134h18z"/><path fill="#83125a" clip-path="url(#a)" d="M264 263h-18V134h18z"/><path fill="#000" d="M32.14687 258.36874q0 1.57813-.54687 2.35938-.53125.76562-1.6875.76562-1.14063 0-1.6875-.75-.54688-.75-.5625-2.25v-1.20312q0-1.57812.53125-2.32812.54688-.76563 1.70313-.76563t1.6875.73437q.54687.73438.5625 2.26563v1.17187zm-.90624-1.23437q0-1.15625-.32813-1.67187-.3125-.53126-1.01563-.53126-.6875 0-1.01562.53126-.3125.51562-.3125 1.59374v1.45313q0 1.15625.32813 1.70313.34375.54687 1.01562.54687.67188 0 .98438-.51563.32812-.51562.34375-1.625v-1.48437zM26.35 210.34166h-4.65625v-.65625l2.45313-2.73438q.54687-.60937.75-1 .21875-.39062.21875-.8125 0-.54687-.34375-.90625-.32813-.35937-.89063-.35937-.67188 0-1.04688.39062-.375.375-.375 1.0625h-.90624q0-.98437.625-1.57812.64062-.60938 1.70312-.60938.98438 0 1.5625.51563.57813.51562.57813 1.39062 0 1.04688-1.34375 2.5l-1.89063 2.0625H26.35v.73438zm1.75-3.5625l.375-3.54688h3.64062v.82813h-2.875l-.21874 1.9375q.51562-.29688 1.1875-.29688.96875 0 1.53125.64063.57812.64062.57812 1.73437t-.59375 1.73438q-.59375.625-1.65625.625-.9375 0-1.54688-.51563-.59374-.53125-.67187-1.45312h.85938q.07812.60937.42187.92187.35938.3125.9375.3125.625 0 .98438-.42187.35937-.4375.35937-1.1875 0-.71875-.39063-1.14063-.375-.4375-1.03124-.4375-.57813 0-.92188.25l-.23438.20313-.73437-.1875zM22.1 155.72084l.375-3.54687h3.64063v.82812h-2.875l-.21875 1.9375q.51562-.29687 1.1875-.29687.96875 0 1.53125.64062.57812.64063.57812 1.73438t-.59375 1.73437q-.59375.625-1.65625.625-.9375 0-1.54688-.51562-.59374-.53125-.67187-1.45313h.85938q.07812.60938.42187.92188.35938.3125.9375.3125.625 0 .98438-.42188.35937-.4375.35937-1.1875 0-.71875-.39063-1.14062-.375-.4375-1.03124-.4375-.57813 0-.92188.25l-.23438.20312-.73437-.1875zm10.04687.53125q0 1.57813-.54687 2.35938-.53125.76562-1.6875.76562-1.14063 0-1.6875-.75-.54688-.75-.5625-2.25v-1.20312q0-1.57813.53125-2.32813.54688-.76562 1.70313-.76562t1.6875.73437q.54687.73438.5625 2.26563v1.17187zm-.90624-1.23437q0-1.15625-.32813-1.67188-.3125-.53125-1.01563-.53125-.6875 0-1.01562.53125-.3125.51563-.3125 1.59375v1.45313q0 1.15625.32813 1.70312.34375.54688 1.01562.54688.67188 0 .98438-.51563.32812-.51562.34375-1.625v-1.48437zM26.2875 101.61562l-2.95313 6.60938h-.9375l2.92188-6.375H21.475v-.73438h4.8125v.5zM28.1 104.6625l.375-3.54688h3.64062v.82813h-2.875l-.21874 1.9375q.51562-.29688 1.1875-.29688.96875 0 1.53125.64063.57812.64062.57812 1.73437t-.59375 1.73438q-.59375.625-1.65625.625-.9375 0-1.54688-.51563-.59374-.53125-.67187-1.45312h.85938q.07812.60937.42187.92187.35938.3125.9375.3125.625 0 .98438-.42187.35937-.4375.35937-1.1875 0-.71875-.39063-1.14063-.375-.4375-1.03124-.4375-.57813 0-.92188.25l-.23438.20313-.73437-.1875zM18.6625 57.16667h-.90625v-6.01563l-1.82813.65625v-.8125l2.59376-.96875h.14062v7.14063zm7.48438-3.03125q0 1.57812-.54688 2.35937-.53125.76563-1.6875.76563-1.14063 0-1.6875-.75-.54688-.75-.5625-2.25v-1.20313q0-1.57812.53125-2.32812.54688-.76563 1.70313-.76563t1.6875.73438q.54687.73437.5625 2.26562v1.17188zm-.90625-1.23438q0-1.15625-.32813-1.67187-.3125-.53125-1.01563-.53125-.6875 0-1.01562.53125-.3125.51562-.3125 1.59375v1.45312q0 1.15625.32813 1.70313.34375.54687 1.01562.54687.67188 0 .98438-.51562.32812-.51563.34375-1.625v-1.48438zm6.90624 1.23438q0 1.57812-.54687 2.35937-.53125.76563-1.6875.76563-1.14063 0-1.6875-.75-.54688-.75-.5625-2.25v-1.20313q0-1.57812.53125-2.32812.54688-.76563 1.70313-.76563t1.6875.73438q.54687.73437.5625 2.26562v1.17188zm-.90624-1.23438q0-1.15625-.32813-1.67187-.3125-.53125-1.01563-.53125-.6875 0-1.01562.53125-.3125.51562-.3125 1.59375v1.45312q0 1.15625.32813 1.70313.34375.54687 1.01562.54687.67188 0 .98438-.51562.32812-.51563.34375-1.625v-1.48438z"/><path fill="#434343" d="M60.60028 276.29062h-2.75V283.9h-1.10937v-7.60938h-2.75v-.92188h6.60937v.92188zm3.5625 7.73438q-1.29687 0-2.10937-.84376-.79688-.85937-.79688-2.28124v-.1875q0-.95313.35938-1.6875.35937-.75 1-1.15626.65625-.42187 1.40625-.42187 1.23437 0 1.92187.8125t.6875 2.32813v.45312h-4.29687q.03125.9375.54687 1.51562.53125.57813 1.34375.57813.5625 0 .95313-.23437.40625-.23438.71875-.625l.65625.51562q-.79688 1.23438-2.39063 1.23438zm-.14062-5.6875q-.65625 0-1.10938.48437-.4375.46875-.53125 1.32813h3.17188v-.07813q-.04688-.82813-.45313-1.28125-.39062-.45312-1.07812-.45312zm7.42187 5.5625q-.09375-.1875-.15625-.67188-.75.79688-1.79687.79688-.9375 0-1.54688-.53126-.59375-.53124-.59375-1.35937 0-.98437.75-1.53125t2.125-.54688h1.04688v-.5q0-.5625-.34375-.89062-.32813-.34375-1-.34375-.57813 0-.96875.29687-.39063.28126-.39063.70313h-1.09375q0-.48437.32813-.92187.34375-.4375.92187-.6875.57813-.26563 1.26563-.26563 1.10937 0 1.71875.54687.625.54688.65625 1.5v2.92188q0 .875.21875 1.39062V283.9h-1.14063zm-1.79687-.82813q.51562 0 .96875-.26563.45312-.26562.65625-.6875v-1.29687h-.84375q-2 0-2 1.17187 0 .5.34375.79688.34375.28125.875.28125zm5.90625-5.51563l.03125.70313q.6875-.8125 1.875-.8125 1.32812 0 1.8125 1.01563.3125-.45313.8125-.73438.51562-.28125 1.20312-.28125 2.09375 0 2.125 2.20313v4.25h-1.07812v-4.1875q0-.67188-.3125-1-.3125-.34376-1.04688-.34376-.60937 0-1.01562.35938-.39063.35938-.45313.96875V283.9h-1.07812v-4.15626q0-1.375-1.35938-1.375-1.0625 0-1.45312.90626v4.625h-1.09375v-6.34376h1.03125zM91.97528 283.9h-1.07812v-7.21876l-2.1875.79688v-.98438l3.10937-1.17187h.15625V283.9zM117.79977 276.29062h-2.75V283.9h-1.10938v-7.60938h-2.75v-.92188h6.60938v.92188zm3.5625 7.73438q-1.29688 0-2.10938-.84376-.79687-.85937-.79687-2.28124v-.1875q0-.95313.35937-1.6875.35938-.75 1-1.15626.65625-.42187 1.40625-.42187 1.23438 0 1.92188.8125t.6875 2.32813v.45312h-4.29688q.03125.9375.54688 1.51562.53125.57813 1.34375.57813.5625 0 .95312-.23437.40625-.23438.71875-.625l.65625.51562q-.79687 1.23438-2.39062 1.23438zm-.14063-5.6875q-.65625 0-1.10937.48437-.4375.46875-.53125 1.32813h3.17187v-.07813q-.04687-.82813-.45312-1.28125-.39063-.45312-1.07813-.45312zm7.42188 5.5625q-.09375-.1875-.15625-.67188-.75.79688-1.79688.79688-.9375 0-1.54687-.53126-.59375-.53124-.59375-1.35937 0-.98437.75-1.53125t2.125-.54688h1.04688v-.5q0-.5625-.34375-.89062-.32813-.34375-1.00001-.34375-.57812 0-.96875.29687-.39062.28126-.39062.70313h-1.09375q0-.48437.32812-.92187.34375-.4375.92188-.6875.57812-.26563 1.26562-.26563 1.10938 0 1.71876.54687.625.54688.65625 1.5v2.92188q0 .875.21875 1.39062V283.9h-1.14063zm-1.79688-.82813q.51563 0 .96875-.26563.45313-.26562.65626-.6875v-1.29687h-.84376q-2 0-2 1.17187 0 .5.34375.79688.34375.28125.875.28125zm5.90626-5.51563l.03125.70313q.6875-.8125 1.875-.8125 1.32812 0 1.8125 1.01563.3125-.45313.8125-.73438.51562-.28125 1.20312-.28125 2.09375 0 2.125 2.20313v4.25h-1.07812v-4.1875q0-.67188-.3125-1-.3125-.34376-1.04688-.34376-.60937 0-1.01562.35938-.39063.35938-.45313.96875V283.9h-1.07812v-4.15626q0-1.375-1.35938-1.375-1.0625 0-1.45312.90626v4.625h-1.09375v-6.34376h1.03125zM151.20602 283.9h-5.59375v-.78126l2.95313-3.28124q.65625-.75.90625-1.20313.25-.46875.25-.96875 0-.67188-.40625-1.09375-.39063-.4375-1.07813-.4375-.79687 0-1.25.46875-.45312.45312-.45312 1.28125h-1.07813q0-1.1875.75-1.90625.76563-.73438 2.03125-.73438 1.20313 0 1.89063.625t.6875 1.67188q0 1.25-1.60938 3l-2.28125 2.46875h4.28125V283.9zM174.99925 276.29062h-2.75V283.9h-1.10937v-7.60938h-2.75v-.92188h6.60937v.92188zm3.5625 7.73438q-1.29687 0-2.10937-.84376-.79688-.85937-.79688-2.28124v-.1875q0-.95313.35938-1.6875.35937-.75 1-1.15626.65625-.42187 1.40625-.42187 1.23437 0 1.92187.8125t.6875 2.32813v.45312h-4.29687q.03125.9375.54687 1.51562.53125.57813 1.34375.57813.5625 0 .95313-.23437.40625-.23438.71875-.625l.65625.51562q-.79688 1.23438-2.39063 1.23438zm-.14062-5.6875q-.65625 0-1.10938.48437-.4375.46875-.53125 1.32813h3.17188v-.07813q-.04688-.82813-.45313-1.28125-.39062-.45312-1.07812-.45312zM185.843 283.9q-.09375-.1875-.15625-.67188-.75.79688-1.79687.79688-.9375 0-1.54688-.53126-.59375-.53124-.59375-1.35937 0-.98437.75-1.53125t2.125-.54688h1.04688v-.5q0-.5625-.34375-.89062-.32813-.34375-1-.34375-.57813 0-.96875.29687-.39063.28126-.39063.70313h-1.09375q0-.48437.32813-.92187.34375-.4375.92187-.6875.57813-.26563 1.26563-.26563 1.10937 0 1.71875.54687.625.54688.65625 1.5v2.92188q0 .875.21875 1.39062V283.9H185.843zm-1.79687-.82813q.51562 0 .96875-.26563.45312-.26562.65625-.6875v-1.29687h-.84375q-2 0-2 1.17187 0 .5.34375.79688.34375.28125.875.28125zm5.90625-5.51563l.03125.70313q.6875-.8125 1.875-.8125 1.32812 0 1.8125 1.01563.3125-.45313.8125-.73438.51562-.28125 1.20312-.28125 2.09375 0 2.125 2.20313v4.25h-1.07812v-4.1875q0-.67188-.3125-1-.3125-.34376-1.04688-.34376-.60937 0-1.01562.35938-.39063.35938-.45313.96875V283.9h-1.07812v-4.15626q0-1.375-1.35938-1.375-1.0625 0-1.45312.90626v4.625h-1.09375v-6.34376h1.03125zm14.4375 1.54688h.8125q.78125-.01562 1.21875-.40625t.4375-1.0625q0-1.5-1.5-1.5-.70313 0-1.125.40625-.40625.40625-.40625 1.0625h-1.09375q0-1.01562.73437-1.6875.75-.67188 1.89063-.67188 1.20312 0 1.89062.64063t.6875 1.78125q0 .5625-.35937 1.07812-.35938.51563-.98438.78126.70313.21874 1.07813.73437.39062.51563.39062 1.26563 0 1.14062-.75 1.82812-.75.67188-1.95312.67188-1.1875 0-1.95313-.65626-.75-.65624-.75-1.71874h1.09375q0 .67187.4375 1.07812t1.1875.40625q.78125 0 1.1875-.40625.42188-.42188.42188-1.1875 0-.73438-.45313-1.125-.45312-.40625-1.32812-.42188h-.8125v-.89062zM232.19875 276.29062h-2.75V283.9h-1.10938v-7.60938h-2.75v-.92188h6.60938v.92188zm3.5625 7.73438q-1.29688 0-2.10938-.84376-.79687-.85937-.79687-2.28124v-.1875q0-.95313.35937-1.6875.35938-.75 1-1.15626.65625-.42187 1.40625-.42187 1.23438 0 1.92188.8125t.6875 2.32813v.45312h-4.29688q.03125.9375.54688 1.51562.53125.57813 1.34375.57813.5625 0 .95312-.23437.40625-.23438.71875-.625l.65625.51562q-.79687 1.23438-2.39062 1.23438zm-.14063-5.6875q-.65625 0-1.10937.48437-.4375.46875-.53125 1.32813h3.17187v-.07813q-.04687-.82813-.45312-1.28125-.39063-.45312-1.07813-.45312zm7.42188 5.5625q-.09375-.1875-.15625-.67188-.75.79688-1.79688.79688-.9375 0-1.54687-.53126-.59375-.53124-.59375-1.35937 0-.98437.75-1.53125t2.125-.54688h1.04687v-.5q0-.5625-.34375-.89062-.32812-.34375-1-.34375-.57812 0-.96875.29687-.39062.28126-.39062.70313h-1.09375q0-.48437.32812-.92187.34375-.4375.92188-.6875.57812-.26563 1.26562-.26563 1.10938 0 1.71875.54687.625.54688.65625 1.5v2.92188q0 .875.21875 1.39062V283.9h-1.14062zm-1.79688-.82813q.51563 0 .96875-.26563.45313-.26562.65625-.6875v-1.29687h-.84375q-2 0-2 1.17187 0 .5.34375.79688.34375.28125.875.28125zm5.90625-5.51563l.03125.70313q.6875-.8125 1.875-.8125 1.32813 0 1.8125 1.01563.3125-.45313.8125-.73438.51563-.28125 1.20313-.28125 2.09375 0 2.125 2.20313v4.25h-1.07813v-4.1875q0-.67188-.3125-1-.3125-.34376-1.04687-.34376-.60938 0-1.01563.35938-.39062.35938-.45312.96875V283.9h-1.07813v-4.15626q0-1.375-1.35937-1.375-1.0625 0-1.45313.90626v4.625h-1.09375v-6.34376h1.03125zm17.43749 3.48438h1.1875v.875h-1.1875V283.9h-1.07813v-1.98438h-3.89063v-.64062l3.8125-5.90626h1.15626v5.67188zm-3.73438 0h2.65625v-4.1875l-.14063.23438-2.51562 3.95312z"/><path fill="#f6b26b" d="M302.9 49.16667c0-.55229.44772-1 1-1h10c.55227 0 1 .44771 1 1v10c0 .55228-.44773 1-1 1h-10c-.55228 0-1-.44772-1-1z"/><path fill="#000" d="M324.8375 55.10417v3.0625h-1.03126v-7.82813h2.89063q1.28125 0 2 .65625.73437.65625.73437 1.73438 0 1.14062-.71874 1.76562-.70313.60938-2.03126.60938h-1.84374zm0-.84375h1.85937q.82813 0 1.26563-.39063.4375-.39062.4375-1.125 0-.70312-.4375-1.10937-.4375-.42188-1.21876-.4375h-1.90624v3.0625zm8.21874 4.01562q-1.17187 0-1.92187-.76562-.73437-.78125-.73437-2.09375v-.17188q0-.875.32812-1.54687.32812-.6875.92188-1.0625.59374-.39063 1.29687-.39063 1.125 0 1.75.75.64063.75.64063 2.14063v.40625H331.4q.01562.85937.48437 1.39062.48437.53125 1.23437.53125.53126 0 .89063-.21875.35937-.21875.64063-.5625l.60937.46875q-.73437 1.125-2.20313 1.125zm-.10937-5.21875q-.60937 0-1.01563.4375-.40624.4375-.5 1.23438h2.90626v-.07813q-.04688-.75-.42188-1.17187-.35938-.42188-.96875-.42188zm6.51563.1875q-.23438-.03125-.48438-.03125-.98438 0-1.32812.82813v4.125h-1v-5.8125h.96874l.01563.67187q.48437-.78125 1.39063-.78125.28124 0 .4375.07813v.92187zm2.26562 4.92188h-.98438v-5.8125h.98438v5.8125zM340.65 50.80729q0-.23437.14062-.39062.15625-.17188.45312-.17188.29688 0 .4375.17188.15626.15625.15626.40625 0 .23437-.15626.39062-.14062.15625-.4375.15625-.29687 0-.45312-.15625-.14062-.15625-.14062-.40625zm2.73437 4.40625q0-.85937.32813-1.53125.34374-.6875.9375-1.0625.60937-.375 1.375-.375 1.1875 0 1.92187.82813.73437.8125.73437 2.1875v.0625q0 .84375-.32812 1.53125-.32812.67187-.9375 1.04687-.59375.375-1.375.375-1.1875 0-1.92188-.8125-.73437-.82812-.73437-2.1875v-.0625zm1 .10938q0 .96875.45313 1.5625.45312.57812 1.20312.57812t1.1875-.59375q.45312-.59375.45312-1.65625 0-.96875-.45312-1.5625t-1.20312-.59375q-.73438 0-1.1875.59375-.45313.57813-.45313 1.67188zm5.03125-.10938q0-1.34375.625-2.15625.64062-.8125 1.65625-.8125 1.03125 0 1.625.70313v-3.03125h1v8.25H353.4l-.04688-.625q-.59375.73437-1.65625.73437-1.01563 0-1.65625-.82812-.625-.82813-.625-2.15625v-.07813zm.98438.10938q0 .98437.40624 1.54687.42188.5625 1.14063.5625.9375 0 1.375-.84375v-2.67187q-.45313-.82813-1.375-.82813-.71875 0-1.14063.5625-.40624.5625-.40624 1.67188zm11.42187 2.84375h-1v-6.625l-2.01563.73437v-.90625l2.85938-1.0625h.15625v7.85938z"/><path fill="#83125a" d="M302.9 73.16666c0-.55228.44772-1 1-1h10c.55227 0 1 .44772 1 1v10c0 .55229-.44773 1-1 1h-10c-.55228 0-1-.44771-1-1z"/><path fill="#000" d="M324.8375 79.10416v3.0625h-1.03126v-7.82812h2.89063q1.28125 0 2 .65625.73437.65625.73437 1.73437 0 1.14063-.71874 1.76563-.70313.60937-2.03126.60937h-1.84374zm0-.84375h1.85937q.82813 0 1.26563-.39062.4375-.39063.4375-1.125 0-.70313-.4375-1.10938-.4375-.42187-1.21876-.4375h-1.90624v3.0625zm8.21874 4.01563q-1.17187 0-1.92187-.76563-.73437-.78125-.73437-2.09375v-.17187q0-.875.32812-1.54688.32812-.6875.92188-1.0625.59374-.39062 1.29687-.39062 1.125 0 1.75.75.64063.75.64063 2.14062v.40625H331.4q.01562.85938.48437 1.39063.48437.53125 1.23437.53125.53126 0 .89063-.21875.35937-.21875.64063-.5625l.60937.46875q-.73437 1.125-2.20313 1.125zm-.10937-5.21875q-.60937 0-1.01563.4375-.40624.4375-.5 1.23437h2.90626v-.07812q-.04688-.75-.42188-1.17188-.35938-.42187-.96875-.42187zm6.51563.1875q-.23438-.03125-.48438-.03125-.98438 0-1.32812.82812v4.125h-1v-5.8125h.96874l.01563.67188q.48437-.78125 1.39063-.78125.28124 0 .4375.07812v.92188zm2.26562 4.92187h-.98438v-5.8125h.98438v5.8125zM340.65 74.8073q0-.23438.14062-.39063.15625-.17187.45312-.17187.29688 0 .4375.17187.15626.15625.15626.40625 0 .23438-.15626.39063-.14062.15625-.4375.15625-.29687 0-.45312-.15625-.14062-.15625-.14062-.40625zm2.73437 4.40625q0-.85938.32813-1.53125.34374-.6875.9375-1.0625.60937-.375 1.375-.375 1.1875 0 1.92187.82812.73437.8125.73437 2.1875v.0625q0 .84375-.32812 1.53125-.32812.67188-.9375 1.04688-.59375.375-1.375.375-1.1875 0-1.92188-.8125-.73437-.82813-.73437-2.1875v-.0625zm1 .10937q0 .96875.45313 1.5625.45312.57813 1.20312.57813t1.1875-.59375q.45312-.59375.45312-1.65625 0-.96875-.45312-1.5625t-1.20312-.59375q-.73438 0-1.1875.59375-.45313.57812-.45313 1.67187zm5.03125-.10937q0-1.34375.625-2.15625.64062-.8125 1.65625-.8125 1.03125 0 1.625.70312v-3.03125h1v8.25H353.4l-.04688-.625q-.59375.73438-1.65625.73438-1.01563 0-1.65625-.82813-.625-.82812-.625-2.15625v-.07812zm.98438.10937q0 .98438.40624 1.54688.42188.5625 1.14063.5625.9375 0 1.375-.84375v-2.67188q-.45313-.82812-1.375-.82812-.71875 0-1.14063.5625-.40624.5625-.40624 1.67187zm13.28124 2.84375h-5.125v-.71875l2.70313-3q.59375-.6875.82813-1.10937.23437-.4375.23437-.89063 0-.60937-.375-1-.375-.39062-.98437-.39062-.75 0-1.15626.42187-.40624.42188-.40624 1.17188h-1q0-1.07813.6875-1.73438.70312-.67187 1.875-.67187 1.07812 0 1.71874.57812.64063.5625.64063 1.51563 0 1.15625-1.48437 2.75l-2.09376 2.26562h3.9375v.8125zM18.27188 27.08437V32.1h-1.6875V19.30312h4.71875q2.10937 0 3.29687 1.07813 1.1875 1.0625 1.1875 2.82812 0 1.875-1.17188 2.875-1.15624 1-3.32812 1h-3.01563zm0-1.375h3.03125q1.35937 0 2.07812-.64062Q24.1 24.42812 24.1 23.225q0-1.14063-.71875-1.8125-.71875-.6875-1.98438-.71875h-3.125v5.01562zm8.625 1.54688q0-1.39063.54687-2.5.5625-1.125 1.53125-1.73438.98438-.60937 2.23438-.60937 1.95312 0 3.14062 1.34375 1.20312 1.34375 1.20312 3.57812v.10938q0 1.39062-.53125 2.5-.53125 1.09375-1.51562 1.71875-.98438.60937-2.26563.60937-1.9375 0-3.14062-1.34375-1.20313-1.34375-1.20313-3.5625v-.10937zm1.64062.1875q0 1.59375.73438 2.54687.73437.95313 1.96875.95313 1.23437 0 1.95312-.96875.73437-.96875.73437-2.71875 0-1.5625-.75-2.53125-.73437-.96875-1.96874-.96875-1.20313 0-1.9375.95312-.73438.95313-.73438 2.73438zM39.1 32.1h-1.625v-9.51563H39.1V32.1zm-1.76563-12.03125q0-.39063.23438-.65625.25-.28125.71875-.28125.48437 0 .73437.28125.25.26562.25.65625 0 .39062-.25.65625-.25.26562-.73437.26562-.46875 0-.71875-.26562-.23438-.26563-.23438-.65625zm5.53125 2.51562l.0625 1.20313q1.07813-1.375 2.84375-1.375 3.01563 0 3.03125 3.40625V32.1h-1.625v-6.29688q0-1.03125-.46875-1.51562-.45312-.5-1.4375-.5-.78125 0-1.39062.42187-.59375.42188-.92188 1.10938V32.1h-1.625v-9.51563h1.53125zM53.5375 20.2875v2.29687h1.78125V23.85H53.5375v5.89062q0 .57813.23437.85938.23438.28125.8125.28125.28125 0 .76563-.09375V32.1q-.64063.17187-1.23438.17187-1.09375 0-1.65625-.65625-.54687-.65625-.54687-1.875V23.85h-1.73438v-1.26563h1.73438V20.2875h1.625zm9.32812 9.29687q0-.67187-.5-1.03125-.48437-.35937-1.71875-.625-1.23437-.26562-1.96875-.625-.71875-.375-1.07812-.89062-.34375-.51563-.34375-1.21875 0-1.15625.98437-1.96875 1-.8125 2.53125-.8125 1.625 0 2.625.84375 1.01563.82812 1.01563 2.125h-1.64063q0-.67188-.57812-1.14063-.5625-.48437-1.42188-.48437-.89062 0-1.39062.39062-.5.375-.5 1 0 .59375.46875.89063.46875.29687 1.6875.57812 1.21875.26563 1.96875.64063.76562.375 1.125.90625.35937.53125.35937 1.29687 0 1.28125-1.01562 2.04688-1.01563.76562-2.64063.76562-1.14062 0-2.03125-.40625-.875-.40625-1.375-1.125t-.5-1.5625h1.64063q.03125.8125.64062 1.29688.625.46875 1.625.46875.92188 0 1.46875-.375.5625-.375.5625-.98438zm13 0q0-.67187-.5-1.03125-.48437-.35937-1.71875-.625-1.23437-.26562-1.96875-.625-.71875-.375-1.07812-.89062-.34375-.51563-.34375-1.21875 0-1.15625.98437-1.96875 1-.8125 2.53125-.8125 1.625 0 2.625.84375 1.01563.82812 1.01563 2.125h-1.64063q0-.67188-.57812-1.14063-.5625-.48437-1.42188-.48437-.89062 0-1.39062.39062-.5.375-.5 1 0 .59375.46875.89063.46875.29687 1.6875.57812 1.21875.26563 1.96875.64063.76562.375 1.125.90625.35937.53125.35937 1.29687 0 1.28125-1.01562 2.04688-1.01563.76562-2.64063.76562-1.14062 0-2.03125-.40625-.875-.40625-1.375-1.125t-.5-1.5625h1.64063q.03125.8125.64062 1.29688.625.46875 1.625.46875.92188 0 1.46875-.375.5625-.375.5625-.98438zm7.28125 1.35938q.875 0 1.51563-.51563.65625-.53125.71875-1.32812h1.54687q-.04687.8125-.5625 1.5625-.51562.73437-1.39062 1.17187-.85938.4375-1.82813.4375-1.9375 0-3.09375-1.29687-1.14062-1.29688-1.14062-3.54688v-.26562q0-1.39063.5-2.46875.51562-1.07813 1.46875-1.67188.95312-.60937 2.25-.60937 1.60937 0 2.65625.96875 1.0625.95312 1.14062 2.48437h-1.54687q-.0625-.92187-.70313-1.51562-.625-.59375-1.54687-.59375-1.23438 0-1.92188.89062-.67187.89063-.67187 2.57813v.29687q0 1.65625.67187 2.54688.67188.875 1.9375.875zm4.75-3.6875q0-1.39063.54688-2.5.5625-1.125 1.53125-1.73438.98437-.60937 2.23437-.60937 1.95313 0 3.14063 1.34375 1.20312 1.34375 1.20312 3.57812v.10938q0 1.39062-.53125 2.5-.53125 1.09375-1.51562 1.71875-.98438.60937-2.26563.60937-1.9375 0-3.14062-1.34375-1.20313-1.34375-1.20313-3.5625v-.10937zm1.64063.1875q0 1.59375.73437 2.54687.73438.95313 1.96875.95313 1.23438 0 1.95313-.96875.73437-.96875.73437-2.71875 0-1.5625-.75-2.53125-.73437-.96875-1.96875-.96875-1.20312 0-1.9375.95312-.73437.95313-.73437 2.73438zm13.39062-3.39063q-.375-.0625-.79687-.0625-1.60938 0-2.17188 1.35938v6.75h-1.625v-9.51563h1.57813l.03125 1.10938q.79687-1.28125 2.26562-1.28125.46875 0 .71875.125v1.51562zm5.34375 8.21875q-1.92187 0-3.14062-1.26562-1.21875-1.26563-1.21875-3.39063v-.3125q0-1.40625.54687-2.51562.54688-1.10938 1.51563-1.73438.96875-.64062 2.09375-.64062 1.85937 0 2.89062 1.21875 1.03125 1.21875 1.03125 3.5v.67187h-6.45312q.04687 1.40625.82812 2.28125.78125.85938 2 .85938.85938 0 1.45313-.34375.60937-.35938 1.04687-.9375l1 .78125q-1.20312 1.82812-3.59375 1.82812zm-.20312-8.51562q-.98438 0-1.65625.71875-.65625.70312-.8125 2h4.76562v-.125q-.07812-1.23438-.67187-1.90625-.59375-.6875-1.625-.6875zm5.85937 3.51562q0-2.1875 1.03125-3.51562 1.04688-1.34375 2.73438-1.34375 1.67187 0 2.64062 1.14062V18.6h1.625v13.5h-1.5l-.07812-1.01563q-.96875 1.1875-2.70313 1.1875-1.65625 0-2.70312-1.34375-1.04688-1.35937-1.04688-3.54687v-.10938zm1.64063.17188q0 1.625.65625 2.54687.67187.90625 1.84375.90625 1.54687 0 2.26562-1.39062v-4.375Q119.6 23.7875 118.1 23.7875q-1.20313 0-1.875.9375-.65625.92187-.65625 2.71875z"/></svg>